<?xml version="1.0" encoding="UTF-8" standalone="no"?>
<!DOCTYPE svg PUBLIC "-//W3C//DTD SVG 20010904//EN"
              "http://www.w3.org/TR/2001/REC-SVG-20010904/DTD/svg10.dtd">

<svg xmlns="http://www.w3.org/2000/svg"
     width="1.2in" height="1.2in"
     viewBox="0 0 360 360">
  <path id="Selección"
        fill="none" stroke="black" stroke-width="1"
        d="M 0.00,0.00
           C 0.00,0.00 360.00,0.00 360.00,0.00
             360.00,0.00 360.00,360.00 360.00,360.00
             360.00,360.00 0.00,360.00 0.00,360.00
             0.00,360.00 0.00,0.00 0.00,0.00 Z
           M 172.00,94.30
           C 166.21,95.39 159.42,97.46 155.54,102.18
             155.54,102.18 151.75,107.83 151.75,107.83
             148.78,111.48 147.26,111.94 145.79,117.00
             144.47,121.52 145.39,125.57 144.87,130.00
             144.16,136.14 141.01,137.58 143.98,145.00
             145.65,149.19 148.51,151.95 150.11,155.00
             150.11,155.00 154.31,167.00 154.31,167.00
             155.53,169.71 158.59,173.90 157.13,176.82
             155.09,180.88 145.18,184.19 141.00,185.81
             130.31,189.95 120.87,193.90 113.33,203.00
             107.18,210.42 105.05,218.54 105.00,228.00
             105.00,228.00 105.00,238.00 105.00,238.00
             105.14,248.17 111.45,251.29 120.00,255.14
             133.45,261.19 154.24,265.82 169.00,266.00
             190.86,266.25 213.41,265.71 234.00,257.40
             239.13,255.32 250.20,250.45 253.02,245.83
             254.87,242.78 254.98,237.51 255.00,234.00
             255.05,223.26 255.15,215.41 248.90,206.00
             242.02,195.65 232.09,191.02 221.00,186.60
             216.71,184.89 206.00,181.46 203.59,177.79
             201.52,174.65 204.36,170.95 205.69,168.00
             205.69,168.00 210.55,155.09 210.55,155.09
             212.50,151.38 214.73,150.61 216.39,146.00
             219.72,136.72 215.99,135.84 215.69,130.91
             215.28,123.98 216.57,121.59 213.52,114.00
             206.59,96.73 188.67,92.64 172.00,94.30 Z
           M 148.00,136.00
           C 146.17,129.77 145.64,119.79 149.09,114.04
             151.08,110.72 153.27,110.10 155.04,107.63
             156.61,105.42 156.54,102.89 161.02,99.99
             173.16,92.14 196.60,95.42 206.38,106.17
             216.24,117.01 213.58,124.39 213.00,137.00
             213.00,137.00 216.00,136.00 216.00,136.00
             215.69,150.14 211.46,147.47 207.71,157.00
             204.99,163.93 204.41,168.66 199.47,175.00
             187.89,189.85 171.60,188.28 160.39,174.00
             155.07,167.22 155.38,162.96 152.74,156.00
             150.90,151.13 138.74,139.28 148.00,136.00 Z
           M 122.10,146.00
           C 124.45,138.50 123.12,139.71 122.10,133.00
             121.03,124.37 121.91,119.87 113.96,113.39
             106.33,107.17 91.46,106.17 83.05,111.36
             80.26,113.09 74.41,120.92 73.26,124.01
             72.25,126.72 70.89,140.41 71.65,143.00
             72.03,144.30 79.54,158.29 82.00,167.00
             75.97,169.21 60.02,175.79 56.00,180.00
             56.00,180.00 83.00,168.00 83.00,168.00
             83.00,168.00 88.79,195.00 88.79,195.00
             88.79,195.00 93.00,211.00 93.00,211.00
             94.33,203.57 93.92,203.20 94.00,196.00
             94.12,186.29 96.80,184.14 93.00,174.00
             93.00,174.00 101.00,174.00 101.00,174.00
             101.00,174.00 102.00,178.00 102.00,178.00
             102.00,178.00 107.00,169.00 107.00,169.00
             95.18,173.98 96.91,171.99 86.00,168.00
             86.00,168.00 91.85,176.01 91.85,176.01
             91.85,176.01 93.00,200.00 93.00,200.00
             93.00,200.00 91.00,200.00 91.00,200.00
             91.00,200.00 86.42,176.00 86.42,176.00
             86.42,176.00 84.57,166.00 84.57,166.00
             84.57,166.00 77.58,150.00 77.58,150.00
             76.20,147.24 73.33,143.92 72.91,141.00
             72.91,141.00 74.19,128.00 74.19,128.00
             74.79,123.63 76.07,122.85 78.51,119.58
             80.54,116.86 81.05,115.01 84.06,112.99
             92.87,107.07 107.82,109.43 114.81,117.04
             118.28,120.81 120.57,125.82 120.43,131.00
             120.43,131.00 120.43,135.83 120.43,135.83
             120.43,135.83 121.37,140.16 121.37,140.16
             121.37,140.16 122.10,146.00 122.10,146.00 Z
           M 274.00,110.00
           C 263.62,107.00 247.46,105.80 244.00,119.00
             248.36,115.63 247.67,112.82 255.00,110.63
             262.56,108.37 269.06,111.40 274.00,110.00 Z
           M 275.00,111.00
           C 275.00,111.00 274.00,112.00 274.00,112.00
             274.00,112.00 278.00,112.00 278.00,112.00
             278.00,112.00 275.00,111.00 275.00,111.00 Z
           M 279.00,113.00
           C 279.00,113.00 285.69,126.00 285.69,126.00
             285.69,126.00 286.27,135.83 286.27,135.83
             286.27,135.83 287.30,142.04 287.30,142.04
             287.30,142.04 283.11,150.00 283.11,150.00
             283.11,150.00 280.37,157.00 280.37,157.00
             280.37,157.00 272.00,170.00 272.00,170.00
             272.00,170.00 275.00,169.00 275.00,169.00
             274.03,176.20 270.87,193.93 268.00,200.00
             268.00,200.00 268.00,192.00 268.00,192.00
             267.85,179.68 264.70,182.60 272.00,170.00
             259.43,173.27 263.43,172.18 252.00,168.00
             253.78,170.24 256.19,172.52 257.22,175.04
             260.22,180.70 259.61,194.37 257.22,200.00
             257.22,200.00 252.42,177.00 252.42,177.00
             252.42,177.00 250.45,166.00 250.45,166.00
             250.45,166.00 242.96,149.00 242.96,149.00
             241.86,146.88 239.73,144.14 239.13,142.00
             238.37,139.28 239.36,137.60 239.75,135.00
             241.14,125.74 237.99,129.02 244.00,119.00
             238.39,122.00 238.37,126.18 237.74,132.00
             237.75,135.38 236.62,139.85 237.74,143.00
             238.47,146.37 247.47,159.50 247.00,168.00
             250.47,171.75 250.98,177.10 252.00,182.00
             253.29,188.23 256.68,207.45 259.00,212.00
             259.00,212.00 260.89,181.00 260.89,181.00
             260.89,181.00 259.00,174.00 259.00,174.00
             259.00,174.00 267.00,174.00 267.00,174.00
             264.65,187.10 266.94,191.38 267.00,203.00
             267.02,206.85 266.57,210.38 268.00,214.00
             268.00,214.00 274.00,183.00 274.00,183.00
             275.04,177.78 275.46,172.14 279.00,168.00
             278.94,159.69 286.51,149.81 288.28,145.00
             289.57,141.42 288.72,137.64 288.28,134.00
             287.14,124.42 287.63,119.50 279.00,113.00 Z
           M 121.00,146.00
           C 112.78,152.65 118.77,155.05 106.94,168.00
             109.58,172.87 108.06,175.88 106.94,181.00
             105.42,187.36 104.81,194.06 102.00,200.00
             102.00,193.10 102.73,184.38 100.00,178.00
             100.00,178.00 101.00,200.00 101.00,200.00
             101.00,200.00 102.00,212.00 102.00,212.00
             102.00,212.00 111.00,168.00 111.00,168.00
             111.00,168.00 129.00,176.18 129.00,176.18
             129.00,176.18 140.00,182.00 140.00,182.00
             140.00,182.00 134.00,186.00 134.00,186.00
             134.00,186.00 142.00,184.00 142.00,184.00
             138.26,176.75 130.10,174.66 123.00,171.80
             120.41,170.75 114.31,168.70 113.52,165.79
             112.99,163.85 114.79,160.82 115.54,159.00
             115.54,159.00 121.00,146.00 121.00,146.00 Z
           M 247.00,168.00
           C 238.86,170.30 221.88,176.49 218.00,184.00
             218.00,184.00 244.00,196.00 244.00,196.00
             238.02,188.53 227.85,186.85 220.00,182.00
             220.00,182.00 233.00,175.29 233.00,175.29
             238.55,172.89 242.55,172.44 247.00,168.00 Z
           M 280.00,168.00
           C 280.00,168.00 279.00,169.00 279.00,169.00
             279.00,169.00 295.00,176.18 295.00,176.18
             295.00,176.18 304.00,179.00 304.00,179.00
             304.00,179.00 280.00,168.00 280.00,168.00 Z
           M 56.00,180.00
           C 56.00,180.00 55.00,180.00 55.00,180.00
             55.00,180.00 56.00,181.00 56.00,181.00
             56.00,181.00 56.00,180.00 56.00,180.00 Z
           M 200.00,179.00
           C 200.00,179.00 212.00,185.13 212.00,185.13
             219.75,188.47 227.82,190.65 235.00,195.24
             251.65,205.88 253.09,217.01 253.00,235.00
             252.98,238.34 253.11,241.92 251.15,244.82
             248.04,249.40 237.26,254.19 232.00,256.19
             222.22,259.91 201.44,263.87 191.00,264.00
             166.78,264.28 145.97,263.86 123.00,254.55
             118.89,252.88 110.35,248.64 108.17,244.82
             106.40,241.70 106.99,231.95 107.00,228.00
             107.02,213.24 112.53,203.24 125.00,195.10
             131.35,190.96 139.94,188.43 147.00,185.55
             147.00,185.55 160.00,179.00 160.00,179.00
             160.00,179.00 169.00,220.00 169.00,220.00
             169.00,220.00 175.00,243.00 175.00,243.00
             175.00,243.00 175.00,230.00 175.00,230.00
             175.00,230.00 176.00,211.00 176.00,211.00
             176.00,211.00 176.78,197.00 176.78,197.00
             176.78,197.00 174.00,188.00 174.00,188.00
             174.00,188.00 187.00,188.00 187.00,188.00
             187.00,188.00 184.11,198.00 184.11,198.00
             184.11,198.00 186.00,231.00 186.00,231.00
             186.00,231.00 187.00,244.00 187.00,244.00
             187.00,244.00 200.00,179.00 200.00,179.00 Z
           M 162.00,179.00
           C 164.65,180.66 168.34,182.89 170.30,185.32
             177.50,194.24 174.02,204.79 174.00,215.00
             173.99,219.87 174.74,223.77 172.00,228.00
             172.00,228.00 162.00,179.00 162.00,179.00 Z
           M 305.00,180.00
           C 305.00,180.00 304.00,180.00 304.00,180.00
             304.00,180.00 305.00,181.00 305.00,181.00
             305.00,181.00 305.00,180.00 305.00,180.00 Z
           M 55.00,181.00
           C 52.41,182.29 51.63,182.67 49.79,185.06
             44.56,191.82 40.58,210.72 48.22,216.90
             60.72,227.00 87.37,229.00 103.00,229.00
             103.05,212.61 107.16,208.75 116.00,196.00
             104.97,201.33 102.01,215.89 102.00,227.00
             87.02,227.00 75.43,226.71 61.00,221.46
             57.14,220.05 49.21,216.39 47.17,212.82
             44.76,208.60 46.20,197.52 47.76,193.00
             49.39,188.27 52.28,185.08 55.00,181.00 Z
           M 197.00,180.00
           C 197.00,180.00 195.00,195.00 195.00,195.00
             195.00,195.00 189.00,227.00 189.00,227.00
             189.00,227.00 187.00,227.00 187.00,227.00
             187.00,227.00 187.00,216.00 187.00,216.00
             186.95,205.43 183.49,195.87 190.07,186.18
             191.74,183.72 194.65,181.84 197.00,180.00 Z
           M 306.00,181.00
           C 306.81,184.47 309.40,186.82 311.25,190.00
             313.95,195.87 315.87,208.34 311.25,213.82
             309.21,216.67 304.97,218.61 302.00,221.00
             306.22,220.20 310.75,218.42 313.41,214.82
             317.66,209.02 315.67,195.08 312.62,189.00
             310.76,185.27 309.23,183.55 306.00,181.00 Z
           M 134.00,186.00
           C 127.49,187.22 120.16,190.80 116.00,196.00
             116.00,196.00 134.00,186.00 134.00,186.00 Z
           M 245.00,196.00
           C 245.95,199.78 250.29,204.03 252.37,208.00
             255.85,214.65 256.93,221.58 257.00,229.00
             267.98,229.00 293.47,227.52 302.00,221.00
             302.00,221.00 290.00,223.99 290.00,223.99
             276.12,227.05 271.86,227.00 258.00,227.00
             257.99,214.70 255.37,203.81 245.00,196.00 Z" />
</svg>
